<?xml version="1.0" encoding="UTF-8"?>
<!DOCTYPE svg PUBLIC "-//W3C//DTD SVG 1.1//EN" "http://www.w3.org/Graphics/SVG/1.1/DTD/svg11.dtd">
<svg  xmlns="http://www.w3.org/2000/svg" version="1.1" width="500px" height="500px" style="shape-rendering:geometricPrecision; text-rendering:geometricPrecision; image-rendering:optimizeQuality; fill-rule:evenodd; clip-rule:evenodd" xmlns:xlink="http://www.w3.org/1999/xlink">
<g><path style="opacity:0.028" fill="#fff3dc" d="M 134.5,183.5 C 137.314,182.835 140.314,182.502 143.5,182.5C 148.424,182.354 153.091,183.021 157.5,184.5C 149.858,183.737 142.191,183.403 134.5,183.5 Z"/></g>
<g><path style="opacity:0.999" fill="#ffac15" d="M 133.5,183.5 C 133.833,183.5 134.167,183.5 134.5,183.5C 142.191,183.403 149.858,183.737 157.5,184.5C 176.957,189.924 191.624,201.591 201.5,219.5C 199.579,220.641 197.579,220.808 195.5,220C 179.685,195.569 157.352,185.902 128.5,191C 96.4474,202.067 81.6141,224.567 84,258.5C 91.2807,289.619 110.781,306.619 142.5,309.5C 166.107,308.677 183.774,298.177 195.5,278C 197.473,277.505 199.473,277.338 201.5,277.5C 196.613,289.895 188.28,299.395 176.5,306C 163.378,313.021 149.378,315.855 134.5,314.5C 109.578,310.294 92.0784,296.628 82,273.5C 78.043,262.509 76.543,251.176 77.5,239.5C 77.5,239.167 77.5,238.833 77.5,238.5C 79.1231,234.022 80.4565,229.355 81.5,224.5C 88.2968,210.368 98.2968,199.035 111.5,190.5C 118.917,188.137 126.251,185.804 133.5,183.5 Z"/></g>
<g><path style="opacity:0.018" fill="#ffefd2" d="M 133.5,183.5 C 126.251,185.804 118.917,188.137 111.5,190.5C 118.239,186.588 125.572,184.255 133.5,183.5 Z"/></g>
<g><path style="opacity:0.999" fill="#ffa908" d="M 191.5,219.5 C 184.679,220.655 177.679,220.821 170.5,220C 169.09,218.628 167.423,217.795 165.5,217.5C 164.7,215.259 163.034,214.259 160.5,214.5C 158.933,212.218 156.933,211.551 154.5,212.5C 155.73,214.933 156.73,217.433 157.5,220C 155.231,220.758 153.064,220.591 151,219.5C 150.76,217.148 149.927,215.148 148.5,213.5C 148.047,209.307 146.881,205.307 145,201.5C 143.951,200.483 142.784,200.316 141.5,201C 138.608,207.674 136.108,214.508 134,221.5C 132.122,222.053 130.622,223.053 129.5,224.5C 128.167,224.5 127.5,223.833 127.5,222.5C 133.929,209.943 131.262,208.109 119.5,217C 112.531,222.609 107.531,229.609 104.5,238C 104.833,238.5 105.167,239 105.5,239.5C 109.056,238.26 112.556,236.927 116,235.5C 115.563,237.757 115.063,240.09 114.5,242.5C 109.826,243.669 105.326,245.336 101,247.5C 100.044,251.925 101.877,253.592 106.5,252.5C 108.781,254.517 111.447,256.184 114.5,257.5C 117.784,260.976 117.117,262.643 112.5,262.5C 110.139,260.375 107.472,259.709 104.5,260.5C 105.62,263.918 107.287,266.918 109.5,269.5C 114.001,278.328 121.001,284.328 130.5,287.5C 130.71,283.245 129.71,279.078 127.5,275C 129.669,274.571 131.669,275.071 133.5,276.5C 136.485,282.95 138.985,289.617 141,296.5C 143.501,298.056 145.001,297.389 145.5,294.5C 147.61,290.498 148.943,286.165 149.5,281.5C 150.772,277.746 153.439,276.58 157.5,278C 155.63,281.061 154.963,284.227 155.5,287.5C 157.261,286.965 158.594,285.965 159.5,284.5C 163.756,283.428 167.422,281.261 170.5,278C 177.833,277.333 185.167,277.333 192.5,278C 175.344,303.136 152.011,311.469 122.5,303C 91.0158,286.854 80.1824,261.687 90,227.5C 104.261,199.12 127.095,187.954 158.5,194C 172.572,198.578 183.572,207.078 191.5,219.5 Z M 127.5,222.5 C 126.609,223.11 125.609,223.443 124.5,223.5C 122.524,221.989 120.191,221.156 117.5,221C 120.682,217.103 124.682,215.103 129.5,215C 128.133,217.301 127.466,219.801 127.5,222.5 Z M 124.5,275.5 C 125.376,275.369 126.043,275.702 126.5,276.5C 127.407,279.057 128.407,281.557 129.5,284C 124.93,283.878 121.263,281.878 118.5,278C 120.723,277.434 122.723,276.6 124.5,275.5 Z"/></g>
<g><path style="opacity:0.227" fill="#fff0d4" d="M 111.5,190.5 C 98.2968,199.035 88.2968,210.368 81.5,224.5C 86.8891,209.11 96.8891,197.777 111.5,190.5 Z"/></g>
<g><path style="opacity:0.102" fill="#ffe9c0" d="M 148.5,213.5 C 147.153,209.648 145.32,205.981 143,202.5C 139.887,208.503 137.553,214.836 136,221.5C 134.157,223.171 131.991,224.171 129.5,224.5C 130.622,223.053 132.122,222.053 134,221.5C 136.108,214.508 138.608,207.674 141.5,201C 142.784,200.316 143.951,200.483 145,201.5C 146.881,205.307 148.047,209.307 148.5,213.5 Z"/></g>
<g><path style="opacity:0.004" fill="#ffecc8" d="M 127.5,222.5 C 127.466,219.801 128.133,217.301 129.5,215C 124.682,215.103 120.682,217.103 117.5,221C 120.191,221.156 122.524,221.989 124.5,223.5C 121.873,222.908 119.206,222.575 116.5,222.5C 116.547,225.969 117.213,229.302 118.5,232.5C 117.21,231.942 116.377,230.942 116,229.5C 115.667,227.5 115.333,225.5 115,223.5C 111.002,226.991 108.502,231.324 107.5,236.5C 110.789,235.626 114.123,234.959 117.5,234.5C 117.494,237.85 116.494,240.85 114.5,243.5C 110.593,245.038 106.76,246.704 103,248.5C 102.333,249.167 102.333,249.833 103,250.5C 104.302,251.085 105.469,251.751 106.5,252.5C 101.877,253.592 100.044,251.925 101,247.5C 105.326,245.336 109.826,243.669 114.5,242.5C 115.063,240.09 115.563,237.757 116,235.5C 112.556,236.927 109.056,238.26 105.5,239.5C 105.167,239 104.833,238.5 104.5,238C 107.531,229.609 112.531,222.609 119.5,217C 131.262,208.109 133.929,209.943 127.5,222.5 Z"/></g>
<g><path style="opacity:0.985" fill="#ffb024" d="M 124.5,223.5 C 124.918,224.222 125.584,224.722 126.5,225C 123.961,227.37 121.628,229.87 119.5,232.5C 119.167,232.5 118.833,232.5 118.5,232.5C 117.213,229.302 116.547,225.969 116.5,222.5C 119.206,222.575 121.873,222.908 124.5,223.5 Z"/></g>
<g><path style="opacity:0.092" fill="#fff4e1" d="M 127.5,222.5 C 127.5,223.833 128.167,224.5 129.5,224.5C 126.461,227.54 123.127,230.206 119.5,232.5C 121.628,229.87 123.961,227.37 126.5,225C 125.584,224.722 124.918,224.222 124.5,223.5C 125.609,223.443 126.609,223.11 127.5,222.5 Z"/></g>
<g><path style="opacity:0.049" fill="#fff3dc" d="M 81.5,224.5 C 80.4565,229.355 79.1231,234.022 77.5,238.5C 77.6102,233.378 78.9436,228.712 81.5,224.5 Z"/></g>
<g><path style="opacity:0.413" fill="#f2e9d9" d="M 241.5,257.5 C 241.784,255.585 241.451,253.919 240.5,252.5C 240.389,251.883 240.056,251.383 239.5,251C 236.964,250.814 234.631,250.314 232.5,249.5C 232.5,248.167 232.5,246.833 232.5,245.5C 231.167,245.5 229.833,245.5 228.5,245.5C 228.183,249.702 228.517,253.702 229.5,257.5C 232.625,258.479 235.958,258.813 239.5,258.5C 233.347,259.653 227.014,259.82 220.5,259C 219.329,255.362 217.996,255.028 216.5,258C 214.527,258.495 212.527,258.662 210.5,258.5C 211.976,254.041 212.642,249.374 212.5,244.5C 219.591,244.924 226.591,244.924 233.5,244.5C 233.33,245.822 233.663,246.989 234.5,248C 241.807,247.783 244.14,250.95 241.5,257.5 Z"/></g>
<g><path style="opacity:0.284" fill="#f2e8d8" d="M 296.5,258.5 C 296.083,259.124 295.416,259.457 294.5,259.5C 292.964,258.751 291.631,257.751 290.5,256.5C 287.771,259.85 284.771,260.183 281.5,257.5C 280.389,258.611 279.055,259.278 277.5,259.5C 270.611,259.483 263.778,259.483 257,259.5C 254.976,258.487 253.143,257.154 251.5,255.5C 249.889,256.32 249.222,257.654 249.5,259.5C 247.901,259.768 246.568,259.434 245.5,258.5C 244.514,254.03 244.181,249.363 244.5,244.5C 246.167,244.5 247.833,244.5 249.5,244.5C 248.831,248.676 250.331,250.009 254,248.5C 254.49,247.207 254.657,245.873 254.5,244.5C 256.167,244.5 257.833,244.5 259.5,244.5C 260.167,248.5 260.833,248.5 261.5,244.5C 263.415,244.216 265.081,244.549 266.5,245.5C 268.347,248.171 271.014,249.171 274.5,248.5C 274.5,247.167 274.5,245.833 274.5,244.5C 277.079,244.083 279.246,244.75 281,246.5C 283.607,245.191 285.941,243.524 288,241.5C 289.333,242.833 290.667,242.833 292,241.5C 293.244,243.576 295.077,244.576 297.5,244.5C 297.819,249.363 297.486,254.03 296.5,258.5 Z"/></g>
<g><path style="opacity:0.376" fill="#6e6961" d="M 287.5,242.5 C 289.322,243.325 290.989,243.658 292.5,243.5C 290.203,246.29 288.536,245.956 287.5,242.5 Z"/></g>
<g><path style="opacity:0.543" fill="#746f66" d="M 189.5,246.5 C 190.209,245.596 191.209,245.263 192.5,245.5C 192.672,246.492 192.338,247.158 191.5,247.5C 191.158,246.662 190.492,246.328 189.5,246.5 Z"/></g>
<g><path style="opacity:0.724" fill="#77726a" d="M 224.5,246.5 C 220.498,246.036 216.831,246.702 213.5,248.5C 213.5,247.5 213.5,246.5 213.5,245.5C 217.371,245.185 221.038,245.518 224.5,246.5 Z"/></g>
<g><path style="opacity:0.184" fill="#e1d8c9" d="M 307.5,245.5 C 310.6,243.757 312.433,244.757 313,248.5C 314.334,244.896 316.834,243.729 320.5,245C 321.126,245.75 321.626,246.584 322,247.5C 327.333,243.5 332.667,243.5 338,247.5C 340.031,257.764 335.864,261.597 325.5,259C 323.163,257.416 320.829,257.582 318.5,259.5C 316.088,259.594 314.255,258.594 313,256.5C 311.827,259.41 309.994,260.077 307.5,258.5C 308.791,258.737 309.791,258.404 310.5,257.5C 310.5,256.167 310.5,254.833 310.5,253.5C 313.084,253.569 315.084,254.735 316.5,257C 317.5,257.667 318.5,257.667 319.5,257C 315.5,253.667 315.5,250.333 319.5,247C 316.519,246.619 314.519,247.952 313.5,251C 312.552,251.483 311.552,251.649 310.5,251.5C 310.5,249.833 310.5,248.167 310.5,246.5C 309.791,245.596 308.791,245.263 307.5,245.5 Z"/></g>
<g><path style="opacity:0.132" fill="#cfc7b9" d="M 129.5,244.5 C 133.967,244.133 138.3,244.633 142.5,246C 143.795,248.801 143.795,251.634 142.5,254.5C 139.325,255.696 136.325,257.196 133.5,259C 132.5,259.667 131.5,259.667 130.5,259C 129.531,254.263 129.197,249.43 129.5,244.5 Z"/></g>
<g><path style="opacity:0.992" fill="#0e0d0c" d="M 130.5,246.5 C 133.85,246.335 137.183,246.502 140.5,247C 143.167,249.333 143.167,251.667 140.5,254C 138.19,254.497 135.857,254.663 133.5,254.5C 133.5,255.5 133.5,256.5 133.5,257.5C 132.5,257.5 131.5,257.5 130.5,257.5C 130.5,253.833 130.5,250.167 130.5,246.5 Z"/></g>
<g><path style="opacity:0.714" fill="#a49e92" d="M 146.5,245.5 C 147.791,245.263 148.791,245.596 149.5,246.5C 147.586,249.684 146.92,253.351 147.5,257.5C 148.5,257.5 149.5,257.5 150.5,257.5C 150.5,257.833 150.5,258.167 150.5,258.5C 149.116,259.801 147.616,259.801 146,258.5C 145.186,253.98 145.353,249.646 146.5,245.5 Z"/></g>
<g><path style="opacity:0.977" fill="#181816" d="M 224.5,246.5 C 224.5,250.167 224.5,253.833 224.5,257.5C 222.902,255.143 221.902,252.477 221.5,249.5C 220.081,248.549 218.415,248.216 216.5,248.5C 216.664,251.187 216.497,253.854 216,256.5C 214.644,257.38 213.144,257.714 211.5,257.5C 212.776,254.664 213.442,251.664 213.5,248.5C 216.831,246.702 220.498,246.036 224.5,246.5 Z"/></g>
<g><path style="opacity:0.912" fill="#9a9489" d="M 232.5,249.5 C 231.842,248.602 231.176,247.602 230.5,246.5C 229.511,250.107 229.177,253.774 229.5,257.5C 228.517,253.702 228.183,249.702 228.5,245.5C 229.833,245.5 231.167,245.5 232.5,245.5C 232.5,246.833 232.5,248.167 232.5,249.5 Z"/></g>
<g><path style="opacity:0.994" fill="#050504" d="M 232.5,249.5 C 234.631,250.314 236.964,250.814 239.5,251C 240.056,251.383 240.389,251.883 240.5,252.5C 240.714,254.144 240.38,255.644 239.5,257C 236.183,257.498 232.85,257.665 229.5,257.5C 229.177,253.774 229.511,250.107 230.5,246.5C 231.176,247.602 231.842,248.602 232.5,249.5 Z"/></g>
<g><path style="opacity:0.804" fill="#5b5650" d="M 248.5,246.5 C 247.213,247.871 246.547,249.705 246.5,252C 246.547,254.295 247.213,256.129 248.5,257.5C 247.791,258.404 246.791,258.737 245.5,258.5C 245.5,254.167 245.5,249.833 245.5,245.5C 246.791,245.263 247.791,245.596 248.5,246.5 Z"/></g>
<g><path style="opacity:0.979" fill="#0f0e0d" d="M 248.5,246.5 C 248.5,247.833 248.5,249.167 248.5,250.5C 250.833,250.5 253.167,250.5 255.5,250.5C 255.5,249.167 255.5,247.833 255.5,246.5C 256.787,247.871 257.453,249.705 257.5,252C 257.453,254.295 256.787,256.129 255.5,257.5C 255.5,256.167 255.5,254.833 255.5,253.5C 253.167,253.5 250.833,253.5 248.5,253.5C 248.5,254.833 248.5,256.167 248.5,257.5C 247.213,256.129 246.547,254.295 246.5,252C 246.547,249.705 247.213,247.871 248.5,246.5 Z"/></g>
<g><path style="opacity:0.908" fill="#716d64" d="M 255.5,246.5 C 256.209,245.596 257.209,245.263 258.5,245.5C 258.5,249.833 258.5,254.167 258.5,258.5C 257.209,258.737 256.209,258.404 255.5,257.5C 256.787,256.129 257.453,254.295 257.5,252C 257.453,249.705 256.787,247.871 255.5,246.5 Z"/></g>
<g><path style="opacity:0.914" fill="#7c776e" d="M 266.5,245.5 C 266.5,246.833 266.5,248.167 266.5,249.5C 268.735,249.205 270.735,249.539 272.5,250.5C 270.167,250.5 267.833,250.5 265.5,250.5C 265.762,249.022 265.429,247.689 264.5,246.5C 263.511,250.107 263.177,253.774 263.5,257.5C 266.5,257.5 269.5,257.5 272.5,257.5C 269.375,258.479 266.042,258.813 262.5,258.5C 262.5,254.167 262.5,249.833 262.5,245.5C 263.833,245.5 265.167,245.5 266.5,245.5 Z"/></g>
<g><path style="opacity:0.99" fill="#0b0b0a" d="M 272.5,250.5 C 275.147,252.771 275.147,255.104 272.5,257.5C 269.5,257.5 266.5,257.5 263.5,257.5C 263.177,253.774 263.511,250.107 264.5,246.5C 265.429,247.689 265.762,249.022 265.5,250.5C 267.833,250.5 270.167,250.5 272.5,250.5 Z"/></g>
<g><path style="opacity:0.822" fill="#868076" d="M 278.5,257.5 C 277.833,242.833 277.167,242.833 276.5,257.5C 275.517,253.702 275.183,249.702 275.5,245.5C 276.833,245.5 278.167,245.5 279.5,245.5C 279.817,249.702 279.483,253.702 278.5,257.5 Z"/></g>
<g><path style="opacity:0.977" fill="#000000" d="M 278.5,257.5 C 277.833,257.5 277.167,257.5 276.5,257.5C 277.167,242.833 277.833,242.833 278.5,257.5 Z"/></g>
<g><path style="opacity:0.92" fill="#514c47" d="M 286.5,246.5 C 284.586,249.684 283.92,253.351 284.5,257.5C 283.517,253.702 283.183,249.702 283.5,245.5C 284.791,245.263 285.791,245.596 286.5,246.5 Z"/></g>
<g><path style="opacity:0.983" fill="#0f0f0e" d="M 286.5,246.5 C 286.337,248.857 286.503,251.19 287,253.5C 288.719,250.712 290.885,248.379 293.5,246.5C 294.787,247.871 295.453,249.705 295.5,252C 295.453,254.295 294.787,256.129 293.5,257.5C 293.663,255.143 293.497,252.81 293,250.5C 290.791,252.373 288.958,254.54 287.5,257C 286.552,257.483 285.552,257.649 284.5,257.5C 283.92,253.351 284.586,249.684 286.5,246.5 Z"/></g>
<g><path style="opacity:0.742" fill="#716d64" d="M 293.5,246.5 C 294.209,245.596 295.209,245.263 296.5,245.5C 296.5,249.833 296.5,254.167 296.5,258.5C 295.209,258.737 294.209,258.404 293.5,257.5C 294.787,256.129 295.453,254.295 295.5,252C 295.453,249.705 294.787,247.871 293.5,246.5 Z"/></g>
<g><path style="opacity:0.714" fill="#9a9389" d="M 307.5,245.5 C 308.791,245.263 309.791,245.596 310.5,246.5C 309.213,247.871 308.547,249.705 308.5,252C 308.547,254.295 309.213,256.129 310.5,257.5C 309.791,258.404 308.791,258.737 307.5,258.5C 306.167,254.167 306.167,249.833 307.5,245.5 Z"/></g>
<g><path style="opacity:0.988" fill="#141312" d="M 310.5,246.5 C 310.5,248.167 310.5,249.833 310.5,251.5C 311.552,251.649 312.552,251.483 313.5,251C 314.519,247.952 316.519,246.619 319.5,247C 315.5,250.333 315.5,253.667 319.5,257C 318.5,257.667 317.5,257.667 316.5,257C 315.084,254.735 313.084,253.569 310.5,253.5C 310.5,254.833 310.5,256.167 310.5,257.5C 309.213,256.129 308.547,254.295 308.5,252C 308.547,249.705 309.213,247.871 310.5,246.5 Z"/></g>
<g><path style="opacity:0.997" fill="#161514" d="M 326.5,246.5 C 334.348,244.963 337.515,247.963 336,255.5C 332.284,257.934 328.451,258.101 324.5,256C 322.731,252.151 323.398,248.985 326.5,246.5 Z"/></g>
<g><path style="opacity:0.753" fill="#f1e8d8" d="M 345.5,245.5 C 346.885,246.574 348.051,247.907 349,249.5C 350.119,246.709 352.119,245.043 355,244.5C 356.326,244.755 357.326,245.422 358,246.5C 358.5,246 359,245.5 359.5,245C 364.352,244.185 369.019,244.352 373.5,245.5C 374.485,249.634 374.818,253.968 374.5,258.5C 371.856,258.84 369.523,258.173 367.5,256.5C 364.226,260.334 361.059,260.334 358,256.5C 357.517,257.448 357.351,258.448 357.5,259.5C 355.833,259.5 354.167,259.5 352.5,259.5C 352.657,258.127 352.49,256.793 352,255.5C 350,258.167 348,258.167 346,255.5C 345.51,256.793 345.343,258.127 345.5,259.5C 343.833,259.5 342.167,259.5 340.5,259.5C 340.5,254.5 340.5,249.5 340.5,244.5C 342.415,244.216 344.081,244.549 345.5,245.5 Z"/></g>
<g><path style="opacity:0.909" fill="#59554e" d="M 353.5,246.5 C 354.209,245.596 355.209,245.263 356.5,245.5C 356.5,249.833 356.5,254.167 356.5,258.5C 355.209,258.737 354.209,258.404 353.5,257.5C 354.787,256.129 355.453,254.295 355.5,252C 355.453,249.705 354.787,247.871 353.5,246.5 Z"/></g>
<g><path style="opacity:0.987" fill="#131210" d="M 345.5,246.5 C 346.055,248.729 347.389,250.395 349.5,251.5C 350.887,249.79 352.221,248.123 353.5,246.5C 354.787,247.871 355.453,249.705 355.5,252C 355.453,254.295 354.787,256.129 353.5,257.5C 354.413,250.435 352.913,249.768 349,255.5C 345.585,250.038 344.085,250.704 344.5,257.5C 342.586,254.316 341.92,250.649 342.5,246.5C 343.5,246.5 344.5,246.5 345.5,246.5 Z"/></g>
<g><path style="opacity:0.824" fill="#5f5953" d="M 345.5,245.5 C 345.5,245.833 345.5,246.167 345.5,246.5C 344.5,246.5 343.5,246.5 342.5,246.5C 341.92,250.649 342.586,254.316 344.5,257.5C 343.791,258.404 342.791,258.737 341.5,258.5C 341.5,254.167 341.5,249.833 341.5,245.5C 342.833,245.5 344.167,245.5 345.5,245.5 Z"/></g>
<g><path style="opacity:0.923" fill="#78736a" d="M 373.5,245.5 C 373.817,249.702 373.483,253.702 372.5,257.5C 372.5,253.833 372.5,250.167 372.5,246.5C 368.833,246.5 365.167,246.5 361.5,246.5C 360.92,250.649 361.586,254.316 363.5,257.5C 362.791,258.404 361.791,258.737 360.5,258.5C 360.5,254.167 360.5,249.833 360.5,245.5C 364.833,245.5 369.167,245.5 373.5,245.5 Z"/></g>
<g><path style="opacity:0.987" fill="#000000" d="M 372.5,257.5 C 371.833,257.5 371.167,257.5 370.5,257.5C 370.5,254.5 370.5,251.5 370.5,248.5C 368.167,248.5 365.833,248.5 363.5,248.5C 363.5,251.5 363.5,254.5 363.5,257.5C 361.586,254.316 360.92,250.649 361.5,246.5C 365.167,246.5 368.833,246.5 372.5,246.5C 372.5,250.167 372.5,253.833 372.5,257.5 Z"/></g>
<g><path style="opacity:1" fill="#868077" d="M 133.5,249.5 C 135.265,248.539 137.265,248.205 139.5,248.5C 139.5,249.833 139.5,251.167 139.5,252.5C 137.265,252.795 135.265,252.461 133.5,251.5C 140.167,250.833 140.167,250.167 133.5,249.5 Z"/></g>
<g><path style="opacity:1" fill="#fbf2e1" d="M 133.5,249.5 C 140.167,250.167 140.167,250.833 133.5,251.5C 133.5,250.833 133.5,250.167 133.5,249.5 Z"/></g>
<g><path style="opacity:0.039" fill="#e3dbcb" d="M 146.5,245.5 C 147.568,244.566 148.901,244.232 150.5,244.5C 150.34,246.199 150.506,247.866 151,249.5C 152.818,247 155.152,245.334 158,244.5C 159.326,244.755 160.326,245.422 161,246.5C 161.5,246 162,245.5 162.5,245C 167.167,244.333 171.833,244.333 176.5,245C 177,245.5 177.5,246 178,246.5C 181.425,243.588 184.092,244.255 186,248.5C 186.956,247.421 187.789,246.255 188.5,245C 190.066,244.235 191.399,244.402 192.5,245.5C 191.209,245.263 190.209,245.596 189.5,246.5C 187.167,251.833 184.833,251.833 182.5,246.5C 181.614,245.224 180.614,245.224 179.5,246.5C 179.624,247.107 179.957,247.44 180.5,247.5C 182.098,249.698 183.431,252.031 184.5,254.5C 183.5,254.5 182.5,254.5 181.5,254.5C 181.5,255.833 181.5,257.167 181.5,258.5C 180.246,256.643 180.246,254.643 181.5,252.5C 180.333,250.833 179.167,249.167 178,247.5C 177.064,249.708 175.398,251.042 173,251.5C 172.503,253.81 172.337,256.143 172.5,258.5C 170.5,258.5 168.5,258.5 166.5,258.5C 166.663,256.143 166.497,253.81 166,251.5C 164.108,250.87 162.441,249.87 161,248.5C 160.667,251.833 160.333,255.167 160,258.5C 158.644,259.38 157.144,259.714 155.5,259.5C 155.66,257.801 155.494,256.134 155,254.5C 153.629,256.041 152.129,257.375 150.5,258.5C 150.5,258.167 150.5,257.833 150.5,257.5C 151.842,254.834 153.675,252.501 156,250.5C 155.97,253.361 156.803,255.695 158.5,257.5C 159.483,253.702 159.817,249.702 159.5,245.5C 158.209,245.263 157.209,245.596 156.5,246.5C 154.567,248.937 152.4,251.271 150,253.5C 149.503,251.19 149.337,248.857 149.5,246.5C 148.791,245.596 147.791,245.263 146.5,245.5 Z"/></g>
<g><path style="opacity:0.641" fill="#817b71" d="M 175.5,248.5 C 174.432,249.434 173.099,249.768 171.5,249.5C 171.806,252.385 171.473,255.052 170.5,257.5C 170.5,254.5 170.5,251.5 170.5,248.5C 172.167,248.5 173.833,248.5 175.5,248.5 Z"/></g>
<g><path style="opacity:0.629" fill="#837d74" d="M 163.5,248.5 C 165.167,248.5 166.833,248.5 168.5,248.5C 168.5,251.5 168.5,254.5 168.5,257.5C 167.527,255.052 167.194,252.385 167.5,249.5C 165.901,249.768 164.568,249.434 163.5,248.5 Z"/></g>
<g><path style="opacity:0.982" fill="#000000" d="M 175.5,248.5 C 173.833,248.5 172.167,248.5 170.5,248.5C 170.5,251.5 170.5,254.5 170.5,257.5C 169.833,257.5 169.167,257.5 168.5,257.5C 168.5,254.5 168.5,251.5 168.5,248.5C 166.833,248.5 165.167,248.5 163.5,248.5C 165.048,247.206 167.048,246.539 169.5,246.5C 171.952,246.539 173.952,247.206 175.5,248.5 Z"/></g>
<g><path style="opacity:0.852" fill="#4e4b44" d="M 156.5,246.5 C 157.209,245.596 158.209,245.263 159.5,245.5C 159.817,249.702 159.483,253.702 158.5,257.5C 159.08,253.351 158.414,249.684 156.5,246.5 Z"/></g>
<g><path style="opacity:0.616" fill="#746f67" d="M 182.5,246.5 C 181.508,246.328 180.842,246.662 180.5,247.5C 179.957,247.44 179.624,247.107 179.5,246.5C 180.614,245.224 181.614,245.224 182.5,246.5 Z"/></g>
<g><path style="opacity:0.946" fill="#5a544f" d="M 221.5,249.5 C 221.902,252.477 222.902,255.143 224.5,257.5C 223.791,258.404 222.791,258.737 221.5,258.5C 221.5,255.5 221.5,252.5 221.5,249.5 Z"/></g>
<g><path style="opacity:1" fill="#e0d7c8" d="M 327.5,248.5 C 329.527,248.338 331.527,248.505 333.5,249C 334.833,250.667 334.833,252.333 333.5,254C 331.19,254.497 328.857,254.663 326.5,254.5C 326.325,252.379 326.659,250.379 327.5,248.5 Z"/></g>
<g><path style="opacity:0.773" fill="#a19a90" d="M 370.5,257.5 C 369.527,255.052 369.194,252.385 369.5,249.5C 367.833,249.5 366.167,249.5 364.5,249.5C 364.806,252.385 364.473,255.052 363.5,257.5C 363.5,254.5 363.5,251.5 363.5,248.5C 365.833,248.5 368.167,248.5 370.5,248.5C 370.5,251.5 370.5,254.5 370.5,257.5 Z"/></g>
<g><path style="opacity:0.164" fill="#d3cabc" d="M 396.5,244.5 C 399.833,244.5 403.167,244.5 406.5,244.5C 405.167,249.5 405.167,254.5 406.5,259.5C 395.541,261.378 391.374,257.045 394,246.5C 394.995,245.934 395.828,245.267 396.5,244.5 Z"/></g>
<g><path style="opacity:0.99" fill="#10100f" d="M 395.5,246.5 C 398.898,246.18 402.232,246.513 405.5,247.5C 402.833,248.167 400.167,248.833 397.5,249.5C 396.167,251.167 396.167,252.833 397.5,254.5C 400.167,255.167 402.833,255.833 405.5,256.5C 395.815,259.482 392.482,256.149 395.5,246.5 Z"/></g>
<g><path style="opacity:0.914" fill="#161513" d="M 149.5,246.5 C 149.337,248.857 149.503,251.19 150,253.5C 152.4,251.271 154.567,248.937 156.5,246.5C 158.414,249.684 159.08,253.351 158.5,257.5C 156.803,255.695 155.97,253.361 156,250.5C 153.675,252.501 151.842,254.834 150.5,257.5C 149.5,257.5 148.5,257.5 147.5,257.5C 146.92,253.351 147.586,249.684 149.5,246.5 Z"/></g>
<g><path style="opacity:0.086" fill="#d3cabc" d="M 381.5,244.5 C 383.288,244.215 384.955,244.548 386.5,245.5C 389.029,249.549 390.696,253.882 391.5,258.5C 388.71,258.778 386.21,258.111 384,256.5C 381.681,257.871 379.181,258.538 376.5,258.5C 377.038,253.425 378.705,248.759 381.5,244.5 Z"/></g>
<g><path style="opacity:0.976" fill="#181716" d="M 381.5,246.5 C 383.144,246.286 384.644,246.62 386,247.5C 387.5,250.5 389,253.5 390.5,256.5C 386.087,255.189 381.754,255.189 377.5,256.5C 379.036,253.222 380.369,249.889 381.5,246.5 Z"/></g>
<g><path style="opacity:0.267" fill="#d1c9bb" d="M 382.5,249.5 C 386.31,250.754 386.31,251.754 382.5,252.5C 382.5,251.5 382.5,250.5 382.5,249.5 Z"/></g>
<g><path style="opacity:0.986" fill="#141311" d="M 182.5,246.5 C 184.833,251.833 187.167,251.833 189.5,246.5C 190.492,246.328 191.158,246.662 191.5,247.5C 189.5,250.833 187.5,254.167 185.5,257.5C 181.995,257.306 181.662,256.306 184.5,254.5C 183.431,252.031 182.098,249.698 180.5,247.5C 180.842,246.662 181.508,246.328 182.5,246.5 Z"/></g>
<g><path style="opacity:0.137" fill="#ddd4c5" d="M 192.5,245.5 C 193.621,247.089 193.454,248.756 192,250.5C 190.513,253.859 188.346,256.525 185.5,258.5C 185.5,258.167 185.5,257.833 185.5,257.5C 187.5,254.167 189.5,250.833 191.5,247.5C 192.338,247.158 192.672,246.492 192.5,245.5 Z"/></g>
<g><path style="opacity:0.102" fill="#dbd2c4" d="M 198.5,244.5 C 200.288,244.215 201.955,244.548 203.5,245.5C 205,248.5 206.5,251.5 208,254.5C 208.72,256.112 208.554,257.612 207.5,259C 205.243,259.112 203.076,258.612 201,257.5C 199.072,257.933 197.239,258.6 195.5,259.5C 192.918,259.253 192.085,257.92 193,255.5C 194.558,251.637 196.391,247.97 198.5,244.5 Z"/></g>
<g><path style="opacity:0.216" fill="#e1d8c9" d="M 201.5,249.5 C 201.5,249.833 201.5,250.167 201.5,250.5C 201.154,252.705 200.487,252.872 199.5,251C 199.836,249.97 200.503,249.47 201.5,249.5 Z"/></g>
<g><path style="opacity:0.979" fill="#0f0e0d" d="M 199.5,246.5 C 200.822,246.33 201.989,246.663 203,247.5C 204.854,250.782 205.688,254.115 205.5,257.5C 202.165,254.929 198.832,254.929 195.5,257.5C 194.531,255.383 194.864,253.383 196.5,251.5C 198.203,250.34 198.869,251.007 198.5,253.5C 199.833,253.5 201.167,253.5 202.5,253.5C 202.737,252.209 202.404,251.209 201.5,250.5C 201.5,250.167 201.5,249.833 201.5,249.5C 200.449,248.778 199.782,247.778 199.5,246.5 Z"/></g>
<g><path style="opacity:1" fill="#3f3d38" d="M 199.5,246.5 C 199.782,247.778 200.449,248.778 201.5,249.5C 200.503,249.47 199.836,249.97 199.5,251C 200.487,252.872 201.154,252.705 201.5,250.5C 202.404,251.209 202.737,252.209 202.5,253.5C 201.167,253.5 199.833,253.5 198.5,253.5C 198.869,251.007 198.203,250.34 196.5,251.5C 197.11,249.566 198.11,247.899 199.5,246.5 Z"/></g>
<g><path style="opacity:1" fill="#969086" d="M 231.5,252.5 C 233.833,252.5 236.167,252.5 238.5,252.5C 238.5,253.5 238.5,254.5 238.5,255.5C 236.473,255.662 234.473,255.495 232.5,255C 231.748,254.329 231.414,253.496 231.5,252.5 Z"/></g>
<g><path style="opacity:1" fill="#948e84" d="M 265.5,252.5 C 267.924,252.192 270.257,252.526 272.5,253.5C 272.291,254.086 271.957,254.586 271.5,255C 269.527,255.495 267.527,255.662 265.5,255.5C 265.5,254.5 265.5,253.5 265.5,252.5 Z"/></g>
<g><path style="opacity:0.047" fill="#ffe9c0" d="M 106.5,252.5 C 113.859,252.526 117.526,256.192 117.5,263.5C 115.585,263.784 113.919,263.451 112.5,262.5C 117.117,262.643 117.784,260.976 114.5,257.5C 111.447,256.184 108.781,254.517 106.5,252.5 Z"/></g>
<g><path style="opacity:0.529" fill="#9f998e" d="M 184.5,254.5 C 181.662,256.306 181.995,257.306 185.5,257.5C 185.5,257.833 185.5,258.167 185.5,258.5C 184.167,259.833 182.833,259.833 181.5,258.5C 181.5,257.167 181.5,255.833 181.5,254.5C 182.5,254.5 183.5,254.5 184.5,254.5 Z"/></g>
<g><path style="opacity:0.566" fill="#9f988e" d="M 240.5,252.5 C 241.451,253.919 241.784,255.585 241.5,257.5C 241.158,258.338 240.492,258.672 239.5,258.5C 235.958,258.813 232.625,258.479 229.5,257.5C 232.85,257.665 236.183,257.498 239.5,257C 240.38,255.644 240.714,254.144 240.5,252.5 Z"/></g>
<g><path style="opacity:0.035" fill="#ffebc7" d="M 112.5,262.5 C 110.488,261.986 108.488,261.82 106.5,262C 107.642,264.45 108.642,266.95 109.5,269.5C 107.287,266.918 105.62,263.918 104.5,260.5C 107.472,259.709 110.139,260.375 112.5,262.5 Z"/></g>
<g><path style="opacity:0.031" fill="#ffeece" d="M 145.5,294.5 C 145.001,297.389 143.501,298.056 141,296.5C 138.985,289.617 136.485,282.95 133.5,276.5C 131.669,275.071 129.669,274.571 127.5,275C 129.71,279.078 130.71,283.245 130.5,287.5C 121.001,284.328 114.001,278.328 109.5,269.5C 111.836,271.004 113.669,273.004 115,275.5C 115.346,272.424 116.012,269.424 117,266.5C 117.561,265.978 118.228,265.645 119,265.5C 123.725,269.45 128.891,272.784 134.5,275.5C 137.485,281.95 139.985,288.617 142,295.5C 142.333,295.833 142.667,296.167 143,296.5C 143.708,295.619 144.542,294.953 145.5,294.5 Z M 124.5,275.5 C 122.723,276.6 120.723,277.434 118.5,278C 121.263,281.878 124.93,283.878 129.5,284C 128.407,281.557 127.407,279.057 126.5,276.5C 126.043,275.702 125.376,275.369 124.5,275.5 Z"/></g>
<g><path style="opacity:0.976" fill="#ffad1a" d="M 118.5,266.5 C 121.003,268.833 123.669,270.999 126.5,273C 123.439,275.035 120.105,276.201 116.5,276.5C 116.311,272.963 116.977,269.63 118.5,266.5 Z"/></g>
<g><path style="opacity:0.188" fill="#ffedcb" d="M 77.5,239.5 C 76.543,251.176 78.043,262.509 82,273.5C 92.0784,296.628 109.578,310.294 134.5,314.5C 134.5,314.833 134.5,315.167 134.5,315.5C 102.362,310.196 83.1958,291.53 77,259.5C 76.1794,252.654 76.346,245.987 77.5,239.5 Z"/></g>
<g><path style="opacity:1" fill="#ffedca" d="M 157.5,184.5 C 175.885,188.062 190.051,197.728 200,213.5C 201.707,215.909 202.54,218.575 202.5,221.5C 195.801,222.294 189.134,222.294 182.5,221.5C 185.898,221.82 189.232,221.487 192.5,220.5C 192.376,219.893 192.043,219.56 191.5,219.5C 183.572,207.078 172.572,198.578 158.5,194C 127.095,187.954 104.261,199.12 90,227.5C 80.1824,261.687 91.0158,286.854 122.5,303C 152.011,311.469 175.344,303.136 192.5,278C 185.167,277.333 177.833,277.333 170.5,278C 167.422,281.261 163.756,283.428 159.5,284.5C 162.944,282.264 166.277,279.764 169.5,277C 180.977,276.792 192.311,276.625 203.5,276.5C 195.074,297.413 179.741,310.247 157.5,315C 149.798,316.572 142.132,316.739 134.5,315.5C 134.5,315.167 134.5,314.833 134.5,314.5C 149.378,315.855 163.378,313.021 176.5,306C 188.28,299.395 196.613,289.895 201.5,277.5C 199.473,277.338 197.473,277.505 195.5,278C 183.774,298.177 166.107,308.677 142.5,309.5C 110.781,306.619 91.2807,289.619 84,258.5C 81.6141,224.567 96.4474,202.067 128.5,191C 157.352,185.902 179.685,195.569 195.5,220C 197.579,220.808 199.579,220.641 201.5,219.5C 191.624,201.591 176.957,189.924 157.5,184.5 Z"/></g>
<g><path style="opacity:0.033" fill="#fff2da" d="M 149.5,281.5 C 148.943,286.165 147.61,290.498 145.5,294.5C 146.057,289.835 147.39,285.502 149.5,281.5 Z"/></g>
<g><path style="opacity:0.149" fill="#ffecc8" d="M 159.5,284.5 C 158.594,285.965 157.261,286.965 155.5,287.5C 154.963,284.227 155.63,281.061 157.5,278C 153.439,276.58 150.772,277.746 149.5,281.5C 149.286,279.856 149.62,278.356 150.5,277C 153.146,276.503 155.813,276.336 158.5,276.5C 158.534,279.199 157.867,281.699 156.5,284C 157.448,284.483 158.448,284.649 159.5,284.5 Z"/></g>
<g><path style="opacity:0.328" fill="#ffdc9a" d="M 165.5,217.5 C 167.423,217.795 169.09,218.628 170.5,220C 177.679,220.821 184.679,220.655 191.5,219.5C 192.043,219.56 192.376,219.893 192.5,220.5C 189.232,221.487 185.898,221.82 182.5,221.5C 177.821,221.666 173.155,221.499 168.5,221C 167.29,219.961 166.29,218.794 165.5,217.5 Z"/></g>
<g><path style="opacity:0.012" fill="#ffecc8" d="M 160.5,214.5 C 159.5,214.5 158.5,214.5 157.5,214.5C 157.674,216.861 158.007,219.194 158.5,221.5C 151.272,223.54 147.939,220.873 148.5,213.5C 149.927,215.148 150.76,217.148 151,219.5C 153.064,220.591 155.231,220.758 157.5,220C 156.73,217.433 155.73,214.933 154.5,212.5C 156.933,211.551 158.933,212.218 160.5,214.5 Z"/></g>
<g><path style="opacity:0.227" fill="#ffe8bc" d="M 160.5,214.5 C 163.034,214.259 164.7,215.259 165.5,217.5C 163.566,216.89 161.899,215.89 160.5,214.5 Z"/></g>
</svg>
